<svg width="351" height="105" viewBox="0 0 351 105" fill="none" xmlns="http://www.w3.org/2000/svg">
<path d="M24.6914 48.3145C24.9714 48.5944 25.3073 49.1263 25.6992 49.9102C26.1471 50.694 26.1751 51.3939 25.7832 52.0098C25.6712 52.2897 25.0273 52.7656 23.8516 53.4375C22.7318 54.1094 21.36 54.8932 19.7363 55.7891C18.1686 56.6289 16.4609 57.5247 14.6133 58.4766C12.7656 59.4284 11.0579 60.3242 9.49023 61.1641C11.002 62.0039 12.5977 62.9277 14.2773 63.9355C15.957 64.8874 17.4967 65.8112 18.8965 66.707C20.3522 67.5469 21.584 68.3027 22.5918 68.9746C23.5996 69.6465 24.1595 70.0944 24.2715 70.3184C24.6074 70.9902 24.5514 71.6901 24.1035 72.418C23.6556 73.1458 23.2637 73.6497 22.9277 73.9297C22.7598 74.0977 22.1719 74.0137 21.1641 73.6777C20.1562 73.3418 18.9245 72.8939 17.4688 72.334C16.013 71.7181 14.4173 71.0462 12.6816 70.3184C11.002 69.5345 9.40625 68.7786 7.89453 68.0508C6.38281 67.3229 5.06706 66.651 3.94727 66.0352C2.82747 65.4193 2.1276 64.9714 1.84766 64.6914C1.45573 64.3555 1.17578 63.8236 1.00781 63.0957C0.895833 62.3678 0.839844 61.612 0.839844 60.8281C0.839844 60.0443 0.895833 59.3444 1.00781 58.7285C1.17578 58.0566 1.34375 57.6647 1.51172 57.5527C1.84766 57.2728 2.63151 56.8249 3.86328 56.209C5.09505 55.5931 6.52279 54.9212 8.14648 54.1934C9.82617 53.4655 11.5898 52.7376 13.4375 52.0098C15.3411 51.2259 17.0768 50.554 18.6445 49.9941C20.2682 49.3783 21.64 48.9303 22.7598 48.6504C23.8796 48.3145 24.5234 48.2025 24.6914 48.3145ZM56.4375 21.3555C56.4375 21.5794 56.1016 22.5872 55.4297 24.3789C54.8138 26.1706 53.946 28.4661 52.8262 31.2656C51.7624 34.0651 50.5026 37.2285 49.0469 40.7559C47.6471 44.2272 46.1914 47.7826 44.6797 51.4219C43.168 55.0612 41.6562 58.6165 40.1445 62.0879C38.6888 65.5592 37.3451 68.6947 36.1133 71.4941C34.8815 74.2936 33.8457 76.6172 33.0059 78.4648C32.166 80.2565 31.6061 81.2643 31.3262 81.4883C30.4303 82.3281 29.5345 82.832 28.6387 83C27.7428 83.112 27.071 83.112 26.623 83C26.4551 82.944 26.5951 82.1322 27.043 80.5645C27.4909 78.9408 28.1348 76.8132 28.9746 74.1816C29.8145 71.4941 30.7943 68.4707 31.9141 65.1113C33.0898 61.696 34.2936 58.2246 35.5254 54.6973C36.7572 51.1139 37.9889 47.5866 39.2207 44.1152C40.5085 40.5879 41.6842 37.4245 42.748 34.625C43.8118 31.8255 44.7077 29.502 45.4355 27.6543C46.1634 25.7507 46.6673 24.6029 46.9473 24.2109C47.4512 23.4271 48.207 22.7272 49.2148 22.1113C50.2786 21.4954 51.3424 21.0475 52.4062 20.7676C53.4701 20.4316 54.3939 20.3197 55.1777 20.4316C56.0176 20.4876 56.4375 20.7956 56.4375 21.3555ZM56.6055 48.3145C56.7734 48.2025 57.3893 48.3145 58.4531 48.6504C59.5729 48.9303 60.9447 49.3783 62.5684 49.9941C64.1921 50.554 65.9277 51.2259 67.7754 52.0098C69.623 52.7376 71.3867 53.4655 73.0664 54.1934C74.7461 54.9212 76.1738 55.5931 77.3496 56.209C78.5814 56.8249 79.3652 57.2728 79.7012 57.5527C79.8691 57.6647 80.0091 58.0566 80.1211 58.7285C80.2331 59.3444 80.2891 60.0443 80.2891 60.8281C80.3451 61.612 80.2891 62.3678 80.1211 63.0957C80.0091 63.8236 79.7852 64.3555 79.4492 64.6914C79.1133 64.9714 78.3854 65.4193 77.2656 66.0352C76.1458 66.651 74.8301 67.3229 73.3184 68.0508C71.8066 68.7786 70.1829 69.5345 68.4473 70.3184C66.7676 71.0462 65.1999 71.7181 63.7441 72.334C62.2884 72.8939 61.0566 73.3418 60.0488 73.6777C59.041 74.0137 58.4531 74.0977 58.2852 73.9297C57.9492 73.6497 57.5573 73.1458 57.1094 72.418C56.7174 71.6901 56.6895 70.9902 57.0254 70.3184C57.1374 70.0944 57.6973 69.6465 58.7051 68.9746C59.7129 68.3027 60.9167 67.5469 62.3164 66.707C63.7721 65.8112 65.3398 64.8874 67.0195 63.9355C68.6992 62.9277 70.2949 62.0039 71.8066 61.1641C70.2389 60.3242 68.5312 59.4284 66.6836 58.4766C64.8359 57.5247 63.1003 56.6289 61.4766 55.7891C59.8529 54.8932 58.4531 54.1094 57.2773 53.4375C56.1576 52.7656 55.5417 52.2897 55.4297 52.0098C55.0378 51.3939 55.0378 50.694 55.4297 49.9102C55.8776 49.1263 56.2695 48.5944 56.6055 48.3145Z" fill="black"/>
<path d="M113.5 11L113.5 88" stroke="black" stroke-width="3"/>
<path d="M159.492 52.1777C159.996 53.1855 160.724 54.6973 161.676 56.7129C162.628 58.7285 163.663 60.9681 164.783 63.4316C165.959 65.8392 167.107 68.3307 168.227 70.9062C169.402 73.4258 170.438 75.7773 171.334 77.9609C172.23 80.0885 172.93 81.8802 173.434 83.3359C173.938 84.7917 174.105 85.6035 173.938 85.7715C173.602 86.0514 173.098 86.1914 172.426 86.1914C171.81 86.1914 171.166 86.1074 170.494 85.9395C169.878 85.7715 169.262 85.5475 168.646 85.2676C168.087 84.9876 167.695 84.6797 167.471 84.3438C165.231 80.9844 163.243 77.9049 161.508 75.1055C159.772 72.306 158.26 69.8704 156.973 67.7988C155.517 65.4473 154.229 63.2917 153.109 61.332C152.717 61.9479 152.298 62.5638 151.85 63.1797C151.458 63.7396 151.066 64.2715 150.674 64.7754C150.506 67.6309 150.338 70.3184 150.17 72.8379C150.002 75.3574 149.834 77.569 149.666 79.4727C149.498 81.3763 149.302 82.86 149.078 83.9238C148.91 85.0436 148.742 85.6035 148.574 85.6035C148.126 85.7155 147.594 85.5475 146.979 85.0996C146.419 84.6517 145.859 84.0918 145.299 83.4199C144.795 82.748 144.347 82.0482 143.955 81.3203C143.563 80.5365 143.311 79.8646 143.199 79.3047C142.863 73.7057 142.583 68.6947 142.359 64.2715C142.135 59.8483 141.967 55.929 141.855 52.5137C141.743 49.0983 141.66 46.1309 141.604 43.6113C141.548 41.0918 141.52 38.9362 141.52 37.1445C141.52 32.9453 141.66 30.0618 141.939 28.4941C142.163 27.3184 142.723 26.1986 143.619 25.1348C144.515 24.015 145.467 23.0632 146.475 22.2793C147.538 21.4395 148.518 20.8236 149.414 20.4316C150.31 19.9837 150.898 19.8438 151.178 20.0117C151.402 20.1797 151.57 21.2435 151.682 23.2031C151.794 25.1068 151.822 27.5423 151.766 30.5098C151.71 33.4772 151.626 36.8086 151.514 40.5039C151.402 44.1432 151.262 47.8105 151.094 51.5059C153.053 47.6986 155.041 43.9473 157.057 40.252C159.128 36.5566 161.032 33.2533 162.768 30.3418C164.503 27.4303 165.987 25.0788 167.219 23.2871C168.451 21.4395 169.234 20.5156 169.57 20.5156C169.906 20.5156 170.326 20.8796 170.83 21.6074C171.334 22.2793 171.782 23.1751 172.174 24.2949C172.622 25.4147 172.93 26.6185 173.098 27.9062C173.266 29.194 173.154 30.4258 172.762 31.6016C172.538 32.2734 172.006 33.3372 171.166 34.793C170.326 36.1927 169.29 37.8164 168.059 39.6641C166.827 41.5117 165.455 43.5273 163.943 45.7109C162.488 47.8385 161.004 49.9941 159.492 52.1777ZM196.949 38.8242C197.285 39.2161 197.593 39.6361 197.873 40.084C198.153 40.4759 198.405 41.0358 198.629 41.7637C198.853 42.4355 199.021 43.3314 199.133 44.4512C199.301 45.571 199.385 47.0267 199.385 48.8184C199.385 51.6738 199.301 54.5573 199.133 57.4688C199.021 60.3242 198.909 62.8438 198.797 65.0273C198.741 66.987 198.685 68.8066 198.629 70.4863C198.573 72.166 198.517 73.6497 198.461 74.9375C198.405 76.1693 198.321 77.1491 198.209 77.877C198.153 78.6048 198.097 78.9967 198.041 79.0527C197.817 79.2207 197.453 79.1647 196.949 78.8848C196.501 78.5488 195.997 78.1289 195.438 77.625C194.934 77.1211 194.458 76.5892 194.01 76.0293C193.562 75.4694 193.282 75.0215 193.17 74.6855C193.17 74.4056 193.086 73.5938 192.918 72.25C191.574 73.0339 190.09 73.5938 188.467 73.9297C186.843 74.2096 185.219 74.3216 183.596 74.2656C182.028 74.1536 180.572 73.8457 179.229 73.3418C177.885 72.8379 176.877 72.166 176.205 71.3262C175.925 70.9902 175.673 70.4863 175.449 69.8145C175.281 69.1426 175.113 68.3867 174.945 67.5469C174.833 66.651 174.721 65.7272 174.609 64.7754C174.497 63.7676 174.413 62.8438 174.357 62.0039C174.245 59.8203 174.525 57.9447 175.197 56.377C175.869 54.7533 177.101 53.5495 178.893 52.7656C179.676 52.4297 180.712 52.2617 182 52.2617C183.344 52.2057 184.66 52.2617 185.947 52.4297C187.291 52.5417 188.495 52.7096 189.559 52.9336C190.622 53.1016 191.294 53.2415 191.574 53.3535C191.35 50.498 191.182 48.0345 191.07 45.9629C190.958 43.8353 190.734 42.4635 190.398 41.8477C190.118 41.4557 189.783 41.0638 189.391 40.6719C189.055 40.3919 188.607 40.084 188.047 39.748C187.487 39.4121 186.815 39.1602 186.031 38.9922C185.415 38.8802 184.855 39.1322 184.352 39.748C183.904 40.3079 183.484 41.3158 183.092 42.7715C182.756 44.1712 182.56 46.3268 182.504 49.2383C180.544 49.2943 179.033 49.2943 177.969 49.2383C176.961 49.1263 176.205 49.0143 175.701 48.9023C175.085 48.7904 174.721 48.6504 174.609 48.4824C174.497 48.2585 174.553 47.4466 174.777 46.0469C175.001 44.5911 175.309 43.0234 175.701 41.3438C176.149 39.6641 176.653 38.0684 177.213 36.5566C177.829 35.0449 178.473 34.0931 179.145 33.7012C180.488 32.9173 182.084 32.6374 183.932 32.8613C185.835 33.0853 187.683 33.5612 189.475 34.2891C191.266 35.0169 192.862 35.8288 194.262 36.7246C195.661 37.6204 196.557 38.3203 196.949 38.8242ZM191.742 63.3477C191.742 63.0677 191.77 62.7038 191.826 62.2559C191.882 61.752 191.91 61.248 191.91 60.7441C191.91 60.2402 191.882 59.7643 191.826 59.3164C191.826 58.8685 191.77 58.5326 191.658 58.3086C191.49 57.9727 190.986 57.6927 190.146 57.4688C189.363 57.2448 188.467 57.1048 187.459 57.0488C186.451 56.9368 185.499 56.9089 184.604 56.9648C183.708 56.9648 183.092 57.0768 182.756 57.3008C182.308 57.5807 181.972 57.9727 181.748 58.4766C181.58 58.9805 181.468 59.7643 181.412 60.8281C181.412 61.332 181.44 61.8639 181.496 62.4238C181.552 62.9837 181.608 63.5436 181.664 64.1035C181.776 64.6074 181.888 65.0553 182 65.4473C182.168 65.8392 182.336 66.0911 182.504 66.2031C182.896 66.4831 183.568 66.735 184.52 66.959C185.527 67.127 186.535 67.1829 187.543 67.127C188.551 67.015 189.475 66.679 190.314 66.1191C191.154 65.5592 191.63 64.6354 191.742 63.3477ZM238.689 33.2812C239.753 34.1771 240.537 35.9688 241.041 38.6562C241.545 41.2878 241.741 44.2272 241.629 47.4746C241.573 48.4824 241.433 49.8822 241.209 51.6738C240.985 53.4095 240.705 55.3411 240.369 57.4688C240.089 59.5404 239.753 61.668 239.361 63.8516C239.025 66.0352 238.689 68.0508 238.354 69.8984C238.018 71.7461 237.71 73.3138 237.43 74.6016C237.206 75.8333 237.066 76.5612 237.01 76.7852C236.898 77.1771 236.59 77.569 236.086 77.9609C235.582 78.3529 235.05 78.6888 234.49 78.9688C233.986 79.1927 233.482 79.3607 232.979 79.4727C232.475 79.5286 232.167 79.4167 232.055 79.1367C231.999 78.9688 231.999 78.1009 232.055 76.5332C232.111 74.9655 232.195 73.0339 232.307 70.7383C232.419 68.3867 232.531 65.8952 232.643 63.2637C232.811 60.5762 232.951 58.0566 233.062 55.7051C233.174 53.3535 233.286 51.3659 233.398 49.7422C233.51 48.0625 233.566 47.0547 233.566 46.7188C233.622 44.9831 233.482 43.4714 233.146 42.1836C232.811 40.8398 232.251 40.168 231.467 40.168C231.187 40.168 230.851 40.3079 230.459 40.5879C230.067 40.8118 229.675 41.0918 229.283 41.4277C228.947 41.7637 228.611 42.1276 228.275 42.5195C227.995 42.9115 227.855 43.2754 227.855 43.6113C227.799 44.6191 227.715 46.1029 227.604 48.0625C227.548 50.0221 227.464 52.1777 227.352 54.5293C227.296 56.8809 227.212 59.2884 227.1 61.752C227.044 64.2155 226.96 66.4831 226.848 68.5547C226.792 70.6263 226.736 72.362 226.68 73.7617C226.624 75.1055 226.568 75.8613 226.512 76.0293C226.4 76.2533 226.036 76.4212 225.42 76.5332C224.86 76.5892 224.216 76.5892 223.488 76.5332C222.76 76.4772 222.089 76.3372 221.473 76.1133C220.913 75.8893 220.577 75.5814 220.465 75.1895C220.353 74.9095 220.269 74.0697 220.213 72.6699C220.157 71.2142 220.073 69.4785 219.961 67.4629C219.905 65.4473 219.849 63.2917 219.793 60.9961C219.737 58.6445 219.681 56.4609 219.625 54.4453C219.569 52.4297 219.513 50.694 219.457 49.2383C219.457 47.7826 219.457 46.8867 219.457 46.5508C219.457 45.207 219.345 44.1432 219.121 43.3594C218.897 42.5195 218.617 41.8757 218.281 41.4277C218.001 40.9238 217.665 40.6159 217.273 40.5039C216.882 40.3359 216.49 40.252 216.098 40.252C215.93 40.252 215.678 40.3919 215.342 40.6719C215.006 40.8958 214.67 41.2598 214.334 41.7637C213.998 42.2116 213.718 42.7435 213.494 43.3594C213.27 43.9193 213.186 44.5352 213.242 45.207C213.242 45.487 213.27 46.5228 213.326 48.3145C213.382 50.1061 213.41 52.2617 213.41 54.7812C213.466 57.3008 213.522 60.0163 213.578 62.9277C213.634 65.8392 213.662 68.5547 213.662 71.0742C213.718 73.5378 213.746 75.6374 213.746 77.373C213.746 79.0527 213.746 79.9486 213.746 80.0605C213.634 80.3405 213.326 80.5085 212.822 80.5645C212.318 80.5645 211.758 80.4525 211.143 80.2285C210.527 80.0046 209.939 79.6966 209.379 79.3047C208.819 78.8568 208.427 78.3249 208.203 77.709C208.091 77.2611 207.923 76.2812 207.699 74.7695C207.475 73.2578 207.223 71.4661 206.943 69.3945C206.663 67.2669 206.383 64.9993 206.104 62.5918C205.824 60.1283 205.544 57.7767 205.264 55.5371C204.984 53.2415 204.732 51.1699 204.508 49.3223C204.34 47.4746 204.2 46.0749 204.088 45.123C203.92 43.7793 203.724 42.3236 203.5 40.7559C203.332 39.1322 203.164 37.5924 202.996 36.1367C202.884 34.625 202.8 33.3372 202.744 32.2734C202.688 31.1536 202.744 30.4538 202.912 30.1738C203.024 29.9499 203.416 29.8659 204.088 29.9219C204.816 29.9779 205.572 30.1458 206.355 30.4258C207.195 30.6497 207.979 30.9857 208.707 31.4336C209.491 31.8255 209.995 32.2454 210.219 32.6934C210.387 33.0293 210.555 33.4492 210.723 33.9531C210.947 34.401 211.171 35.1289 211.395 36.1367C212.346 35.4089 213.326 34.737 214.334 34.1211C215.342 33.4492 216.35 32.9453 217.357 32.6094C218.365 32.2174 219.317 32.0215 220.213 32.0215C221.165 31.9655 222.061 32.2174 222.9 32.7773C223.628 33.3372 224.328 34.3171 225 35.7168C227.688 34.2051 230.263 33.1693 232.727 32.6094C235.246 31.9935 237.234 32.2174 238.689 33.2812ZM268.168 38.8242C268.504 39.2161 268.812 39.6361 269.092 40.084C269.372 40.4759 269.624 41.0358 269.848 41.7637C270.072 42.4355 270.24 43.3314 270.352 44.4512C270.52 45.571 270.604 47.0267 270.604 48.8184C270.604 51.6738 270.52 54.5573 270.352 57.4688C270.24 60.3242 270.128 62.8438 270.016 65.0273C269.96 66.987 269.904 68.8066 269.848 70.4863C269.792 72.166 269.736 73.6497 269.68 74.9375C269.624 76.1693 269.54 77.1491 269.428 77.877C269.372 78.6048 269.316 78.9967 269.26 79.0527C269.036 79.2207 268.672 79.1647 268.168 78.8848C267.72 78.5488 267.216 78.1289 266.656 77.625C266.152 77.1211 265.676 76.5892 265.229 76.0293C264.781 75.4694 264.501 75.0215 264.389 74.6855C264.389 74.4056 264.305 73.5938 264.137 72.25C262.793 73.0339 261.309 73.5938 259.686 73.9297C258.062 74.2096 256.438 74.3216 254.814 74.2656C253.247 74.1536 251.791 73.8457 250.447 73.3418C249.104 72.8379 248.096 72.166 247.424 71.3262C247.144 70.9902 246.892 70.4863 246.668 69.8145C246.5 69.1426 246.332 68.3867 246.164 67.5469C246.052 66.651 245.94 65.7272 245.828 64.7754C245.716 63.7676 245.632 62.8438 245.576 62.0039C245.464 59.8203 245.744 57.9447 246.416 56.377C247.088 54.7533 248.32 53.5495 250.111 52.7656C250.895 52.4297 251.931 52.2617 253.219 52.2617C254.562 52.2057 255.878 52.2617 257.166 52.4297C258.51 52.5417 259.714 52.7096 260.777 52.9336C261.841 53.1016 262.513 53.2415 262.793 53.3535C262.569 50.498 262.401 48.0345 262.289 45.9629C262.177 43.8353 261.953 42.4635 261.617 41.8477C261.337 41.4557 261.001 41.0638 260.609 40.6719C260.273 40.3919 259.826 40.084 259.266 39.748C258.706 39.4121 258.034 39.1602 257.25 38.9922C256.634 38.8802 256.074 39.1322 255.57 39.748C255.122 40.3079 254.702 41.3158 254.311 42.7715C253.975 44.1712 253.779 46.3268 253.723 49.2383C251.763 49.2943 250.251 49.2943 249.188 49.2383C248.18 49.1263 247.424 49.0143 246.92 48.9023C246.304 48.7904 245.94 48.6504 245.828 48.4824C245.716 48.2585 245.772 47.4466 245.996 46.0469C246.22 44.5911 246.528 43.0234 246.92 41.3438C247.368 39.6641 247.872 38.0684 248.432 36.5566C249.048 35.0449 249.691 34.0931 250.363 33.7012C251.707 32.9173 253.303 32.6374 255.15 32.8613C257.054 33.0853 258.902 33.5612 260.693 34.2891C262.485 35.0169 264.081 35.8288 265.48 36.7246C266.88 37.6204 267.776 38.3203 268.168 38.8242ZM262.961 63.3477C262.961 63.0677 262.989 62.7038 263.045 62.2559C263.101 61.752 263.129 61.248 263.129 60.7441C263.129 60.2402 263.101 59.7643 263.045 59.3164C263.045 58.8685 262.989 58.5326 262.877 58.3086C262.709 57.9727 262.205 57.6927 261.365 57.4688C260.581 57.2448 259.686 57.1048 258.678 57.0488C257.67 56.9368 256.718 56.9089 255.822 56.9648C254.926 56.9648 254.311 57.0768 253.975 57.3008C253.527 57.5807 253.191 57.9727 252.967 58.4766C252.799 58.9805 252.687 59.7643 252.631 60.8281C252.631 61.332 252.659 61.8639 252.715 62.4238C252.771 62.9837 252.827 63.5436 252.883 64.1035C252.995 64.6074 253.107 65.0553 253.219 65.4473C253.387 65.8392 253.555 66.0911 253.723 66.2031C254.115 66.4831 254.786 66.735 255.738 66.959C256.746 67.127 257.754 67.1829 258.762 67.127C259.77 67.015 260.693 66.679 261.533 66.1191C262.373 65.5592 262.849 64.6354 262.961 63.3477ZM282.277 58.7285C283.173 58.3926 284.181 58.0286 285.301 57.6367C286.477 57.1888 287.596 56.7969 288.66 56.4609C289.724 56.069 290.676 55.7331 291.516 55.4531C292.355 55.1732 292.971 54.9492 293.363 54.7812C293.307 54.1654 293.223 53.4655 293.111 52.6816C293.055 51.8418 292.971 51.0579 292.859 50.3301C292.747 49.5462 292.607 48.8743 292.439 48.3145C292.271 47.7546 292.104 47.4186 291.936 47.3066C291.488 47.1387 290.732 46.9987 289.668 46.8867C288.66 46.7188 287.596 46.7467 286.477 46.9707C285.413 47.1947 284.433 47.6146 283.537 48.2305C282.641 48.8464 282.137 49.8262 282.025 51.1699C281.913 52.0658 281.885 53.1855 281.941 54.5293C281.997 55.873 282.109 57.2728 282.277 58.7285ZM300.502 60.0723C300.446 60.1842 299.774 60.4082 298.486 60.7441C297.199 61.0801 295.659 61.444 293.867 61.8359C292.076 62.1719 290.172 62.5358 288.156 62.9277C286.141 63.2637 284.405 63.5436 282.949 63.7676C283.229 66.0072 283.565 68.0228 283.957 69.8145C284.349 71.5501 284.685 72.6419 284.965 73.0898C285.245 73.4818 285.609 73.8457 286.057 74.1816C286.449 74.4616 286.924 74.7415 287.484 75.0215C288.1 75.2454 288.828 75.4134 289.668 75.5254C290.284 75.6934 290.872 75.4694 291.432 74.8535C291.88 74.2936 292.271 73.3138 292.607 71.9141C292.999 70.5143 293.195 68.3027 293.195 65.2793C294.931 64.9993 296.275 64.8314 297.227 64.7754C298.234 64.7194 298.962 64.7194 299.41 64.7754C299.97 64.8314 300.306 64.9154 300.418 65.0273C300.474 65.1953 300.474 65.6152 300.418 66.2871C300.362 66.959 300.222 67.7988 299.998 68.8066C299.83 69.7585 299.606 70.8223 299.326 71.998C299.102 73.1178 298.822 74.2096 298.486 75.2734C298.15 76.2812 297.786 77.2051 297.395 78.0449C297.003 78.8288 296.583 79.3887 296.135 79.7246C294.791 80.7324 293.111 81.2363 291.096 81.2363C289.08 81.1803 287.092 80.9004 285.133 80.3965C283.173 79.8366 281.41 79.1927 279.842 78.4648C278.274 77.681 277.294 77.0371 276.902 76.5332C276.622 76.1973 276.37 75.3574 276.146 74.0137C275.923 72.6139 275.727 70.9342 275.559 68.9746C275.447 67.015 275.363 64.8594 275.307 62.5078C275.251 60.1562 275.279 57.8607 275.391 55.6211C275.559 53.3815 275.783 51.3099 276.062 49.4062C276.398 47.5026 276.846 45.9629 277.406 44.7871C278.246 43.1074 279.618 41.7357 281.521 40.6719C283.425 39.6081 285.441 38.8802 287.568 38.4883C289.696 38.0964 291.712 38.0404 293.615 38.3203C295.575 38.6003 297.031 39.2161 297.982 40.168C298.542 40.7279 299.046 41.8477 299.494 43.5273C299.942 45.151 300.222 47.1387 300.334 49.4902C300.334 49.7142 300.362 50.3581 300.418 51.4219C300.474 52.4857 300.502 53.6335 300.502 54.8652C300.558 56.041 300.586 57.1608 300.586 58.2246C300.586 59.2884 300.558 59.9043 300.502 60.0723ZM326.537 27.0664C326.817 27.6823 327.069 28.4382 327.293 29.334C327.517 30.2298 327.657 31.1257 327.713 32.0215C327.825 32.8613 327.853 33.5892 327.797 34.2051C327.741 34.821 327.545 35.1569 327.209 35.2129C326.873 35.2129 326.173 34.877 325.109 34.2051C324.046 33.4772 322.898 32.7773 321.666 32.1055C320.434 31.3776 319.286 30.8177 318.223 30.4258C317.159 29.9779 316.515 30.0618 316.291 30.6777C316.123 31.1257 316.011 31.8815 315.955 32.9453C315.899 34.0091 315.843 35.3249 315.787 36.8926C315.787 38.4043 315.787 40.14 315.787 42.0996C315.843 44.0033 315.899 46.0189 315.955 48.1465C317.635 47.9785 319.118 47.8665 320.406 47.8105C321.75 47.7546 322.618 47.7826 323.01 47.8945C323.514 48.0625 323.906 48.5104 324.186 49.2383C324.521 49.9102 324.717 50.666 324.773 51.5059C324.885 52.3457 324.857 53.1296 324.689 53.8574C324.577 54.5853 324.326 55.0612 323.934 55.2852C323.654 55.4531 322.758 55.5651 321.246 55.6211C319.79 55.6771 318.111 55.6771 316.207 55.6211C316.319 58.4766 316.431 61.304 316.543 64.1035C316.711 66.847 316.851 69.3665 316.963 71.6621C317.075 73.9577 317.159 75.9453 317.215 77.625C317.327 79.2487 317.383 80.3965 317.383 81.0684C317.383 81.9082 317.131 82.3001 316.627 82.2441C316.179 82.1322 315.619 81.7682 314.947 81.1523C314.275 80.4805 313.548 79.6406 312.764 78.6328C312.036 77.625 311.42 76.6172 310.916 75.6094C310.636 75.1055 310.384 74.2096 310.16 72.9219C309.936 71.6341 309.712 70.0944 309.488 68.3027C309.264 66.4551 309.04 64.4115 308.816 62.1719C308.592 59.9323 308.396 57.6087 308.229 55.2012C307.109 55.0892 306.129 54.9772 305.289 54.8652C304.505 54.7533 304.029 54.6413 303.861 54.5293C303.581 54.3053 303.385 54.0254 303.273 53.6895C303.217 53.2975 303.161 52.9056 303.105 52.5137C303.105 52.1217 303.105 51.7578 303.105 51.4219C303.161 51.0299 303.217 50.722 303.273 50.498C303.385 50.3301 303.833 50.1341 304.617 49.9102C305.457 49.6862 306.521 49.4622 307.809 49.2383C307.641 47.1107 307.501 45.0391 307.389 43.0234C307.333 41.0078 307.277 39.1602 307.221 37.4805C307.165 35.7448 307.109 34.2611 307.053 33.0293C307.053 31.7415 307.081 30.7617 307.137 30.0898C307.137 29.5859 307.445 28.8861 308.061 27.9902C308.732 27.0384 309.488 26.0866 310.328 25.1348C311.224 24.1829 312.12 23.3151 313.016 22.5312C313.967 21.7474 314.723 21.2155 315.283 20.9355C316.571 20.3197 317.831 20.1797 319.062 20.5156C320.294 20.8516 321.414 21.4395 322.422 22.2793C323.43 23.0632 324.298 23.931 325.025 24.8828C325.753 25.7786 326.257 26.5065 326.537 27.0664ZM349.465 27.0664C349.745 27.6823 349.997 28.4382 350.221 29.334C350.445 30.2298 350.585 31.1257 350.641 32.0215C350.753 32.8613 350.781 33.5892 350.725 34.2051C350.669 34.821 350.473 35.1569 350.137 35.2129C349.801 35.2129 349.101 34.877 348.037 34.2051C346.973 33.4772 345.826 32.7773 344.594 32.1055C343.362 31.3776 342.214 30.8177 341.15 30.4258C340.087 29.9779 339.443 30.0618 339.219 30.6777C339.051 31.1257 338.939 31.8815 338.883 32.9453C338.827 34.0091 338.771 35.3249 338.715 36.8926C338.715 38.4043 338.715 40.14 338.715 42.0996C338.771 44.0033 338.827 46.0189 338.883 48.1465C340.562 47.9785 342.046 47.8665 343.334 47.8105C344.678 47.7546 345.546 47.7826 345.938 47.8945C346.441 48.0625 346.833 48.5104 347.113 49.2383C347.449 49.9102 347.645 50.666 347.701 51.5059C347.813 52.3457 347.785 53.1296 347.617 53.8574C347.505 54.5853 347.253 55.0612 346.861 55.2852C346.581 55.4531 345.686 55.5651 344.174 55.6211C342.718 55.6771 341.038 55.6771 339.135 55.6211C339.247 58.4766 339.359 61.304 339.471 64.1035C339.639 66.847 339.779 69.3665 339.891 71.6621C340.003 73.9577 340.087 75.9453 340.143 77.625C340.255 79.2487 340.311 80.3965 340.311 81.0684C340.311 81.9082 340.059 82.3001 339.555 82.2441C339.107 82.1322 338.547 81.7682 337.875 81.1523C337.203 80.4805 336.475 79.6406 335.691 78.6328C334.964 77.625 334.348 76.6172 333.844 75.6094C333.564 75.1055 333.312 74.2096 333.088 72.9219C332.864 71.6341 332.64 70.0944 332.416 68.3027C332.192 66.4551 331.968 64.4115 331.744 62.1719C331.52 59.9323 331.324 57.6087 331.156 55.2012C330.036 55.0892 329.057 54.9772 328.217 54.8652C327.433 54.7533 326.957 54.6413 326.789 54.5293C326.509 54.3053 326.313 54.0254 326.201 53.6895C326.145 53.2975 326.089 52.9056 326.033 52.5137C326.033 52.1217 326.033 51.7578 326.033 51.4219C326.089 51.0299 326.145 50.722 326.201 50.498C326.313 50.3301 326.761 50.1341 327.545 49.9102C328.385 49.6862 329.449 49.4622 330.736 49.2383C330.568 47.1107 330.428 45.0391 330.316 43.0234C330.26 41.0078 330.204 39.1602 330.148 37.4805C330.092 35.7448 330.036 34.2611 329.98 33.0293C329.98 31.7415 330.008 30.7617 330.064 30.0898C330.064 29.5859 330.372 28.8861 330.988 27.9902C331.66 27.0384 332.416 26.0866 333.256 25.1348C334.152 24.1829 335.048 23.3151 335.943 22.5312C336.895 21.7474 337.651 21.2155 338.211 20.9355C339.499 20.3197 340.758 20.1797 341.99 20.5156C343.222 20.8516 344.342 21.4395 345.35 22.2793C346.357 23.0632 347.225 23.931 347.953 24.8828C348.681 25.7786 349.185 26.5065 349.465 27.0664Z" fill="black"/>
</svg>
